<svg width="105" height="107" viewBox="0 0 105 107" fill="none" xmlns="http://www.w3.org/2000/svg">
<path d="M72.6971 74.0659C76.5688 73.6391 79.5061 70.0854 79.3725 65.8203C79.2393 61.5557 75.9012 58.1437 71.8959 58.1437H71.6291C67.4897 58.286 64.2856 61.982 64.4193 66.3889C64.5529 68.5214 65.3537 70.3694 66.5553 71.6489C62.016 81.1739 55.0734 88.1396 44.6594 93.9682C37.5832 97.9487 30.2402 99.3704 22.8971 98.3755C16.8889 97.5224 12.216 94.6795 9.27827 89.9876C5.00614 83.0219 4.60573 75.4872 8.21065 67.9528C10.7475 62.5506 14.7525 58.5701 17.2893 56.5798C16.7553 54.7318 15.9541 51.6043 15.5537 49.33C-3.80574 64.2568 -1.80287 84.4436 4.07172 93.9682C8.47745 101.077 17.4229 105.483 27.3029 105.483C29.9729 105.483 32.643 105.199 35.3135 104.489C52.4033 100.934 65.3541 90.1299 72.6971 74.0659ZM96.1955 56.438C86.0483 43.7855 71.0951 36.8198 54.0053 36.8198H51.8693C50.6676 34.2609 48.1307 32.5547 45.327 32.5547H45.0598C40.9213 32.697 37.7172 36.393 37.8504 40.8003C37.984 45.0649 41.3217 48.4769 45.327 48.4769H45.5938C48.5311 48.3346 51.068 46.3444 52.1361 43.6433H54.5393C64.6865 43.6433 74.2992 46.7707 82.9779 52.8838C89.6533 57.5752 94.4598 63.6882 97.1299 71.0803C99.3996 77.0511 99.266 82.8797 96.8627 87.8556C93.1246 95.3899 86.8496 99.5127 78.5717 99.5127C73.2311 99.5127 68.1578 97.8065 65.4873 96.527C64.0188 97.9487 61.3484 100.223 59.4791 101.645C65.2205 104.488 71.0951 106.052 76.7025 106.052C89.5197 106.052 98.9992 98.5173 102.604 90.983C106.476 82.7374 106.209 68.5214 96.1955 56.438ZM28.3709 76.4821C28.5045 80.7471 31.8422 84.1586 35.8475 84.1586H36.1147C40.2537 84.0168 43.4578 80.3204 43.3242 75.9135C43.191 71.6484 39.8529 68.2369 35.8475 68.2369H35.5807C35.3135 68.2369 34.9127 68.2369 34.6463 68.3787C29.1721 58.7119 26.9025 48.1924 27.7037 36.8194C28.2373 28.2897 30.9078 20.8972 35.5807 14.7841C39.4525 9.52415 46.9291 6.96529 52.0029 6.82347C66.1549 6.53896 72.1627 25.3041 72.5635 32.8388C74.2992 33.2651 77.2365 34.2605 79.2393 34.9713C77.6369 11.9416 64.2856 0 51.4688 0C39.4524 0 28.3709 9.24051 23.9647 22.8879C17.8234 41.0844 21.8287 58.5701 29.3053 72.3597C28.6381 73.3546 28.2373 74.9186 28.3709 76.4825V76.4821Z" fill="#764ABC"/>
</svg>
