<svg width="120" height="120" viewBox="0 0 120 120" fill="none" xmlns="http://www.w3.org/2000/svg">
<path d="M22.1325 102.004L13.71 7.5H106.29L97.8562 101.989L59.9437 112.5L22.1325 102.004Z" fill="#1572B6"/>
<path d="M60 104.468L90.6375 95.9738L97.845 15.2288H60V104.468Z" fill="#33A9DC"/>
<path d="M60 49.4662H75.3375L76.395 37.5975H60V26.0062H89.0625L88.785 29.115L85.9387 61.0575H60V49.4662Z" fill="white"/>
<path d="M60.0711 79.5674L60.0186 79.5824L47.1112 76.0949L46.2862 66.8512H34.6499L36.2737 85.0499L60.0149 91.6424L60.0711 91.6274V79.5674Z" fill="#EBEBEB"/>
<path d="M74.3513 60.5663L72.9563 76.0875L60.03 79.575V91.635L83.79 85.05L83.9663 83.0925L85.98 60.5663H74.3513Z" fill="white"/>
<path d="M60.0411 26.0062V37.5975H32.0436L31.8111 34.9912L31.2824 29.115L31.0049 26.0062H60.0411ZM59.9999 49.4662V61.0575H47.2536L47.0211 58.4512L46.4961 52.575L46.2186 49.4662H59.9999Z" fill="#EBEBEB"/>
</svg>
