<svg width="110" height="110" viewBox="0 0 110 110" fill="none" xmlns="http://www.w3.org/2000/svg">
<path d="M99.7218 17.2907L79.9012 7.74818C78.7819 7.20848 77.5224 7.03039 76.2973 7.23857C75.0722 7.44675 73.9422 8.03091 73.064 8.91005L8.1812 68.0626C7.39398 68.7769 6.92275 69.7747 6.87118 70.8364C6.81961 71.8981 7.19191 72.9369 7.9062 73.7241C7.99213 73.8169 8.07807 73.9063 8.17088 73.9888L13.4681 78.8013C14.1603 79.4313 15.0512 79.7989 15.9863 79.8404C16.9213 79.8818 17.8413 79.5945 18.5865 79.0282L96.7381 19.7657C97.3284 19.3177 98.032 19.0435 98.7697 18.9737C99.5074 18.904 100.25 19.0416 100.914 19.371C101.578 19.7003 102.136 20.2085 102.527 20.8382C102.918 21.4678 103.125 22.194 103.125 22.9351V22.7047C103.125 21.5735 102.805 20.4652 102.203 19.5074C101.601 18.5496 100.741 17.7812 99.7218 17.2907Z" fill="#0065A9"/>
<path d="M99.7218 92.7094L79.9012 102.255C78.7815 102.793 77.5224 102.971 76.2977 102.763C75.0729 102.555 73.943 101.971 73.064 101.093L8.1812 41.9375C7.39398 41.2232 6.92275 40.2254 6.87118 39.1637C6.81961 38.1019 7.19191 37.0632 7.9062 36.2759C7.99213 36.1831 8.07807 36.0938 8.17088 36.0113L13.4681 31.1988C14.161 30.5661 15.054 30.1969 15.9913 30.1554C16.9286 30.1139 17.8508 30.4029 18.5968 30.9719L96.7381 90.2344C97.3284 90.6823 98.032 90.9566 98.7697 91.0263C99.5074 91.0961 100.25 90.9585 100.914 90.6291C101.578 90.2997 102.136 89.7916 102.527 89.1619C102.918 88.5322 103.125 87.806 103.125 87.065V87.3125C103.121 88.4408 102.8 89.5452 102.198 90.4996C101.597 91.454 100.738 92.2198 99.7218 92.7094Z" fill="#007ACC"/>
<path d="M79.9012 102.255C78.7816 102.793 77.5224 102.971 76.2977 102.763C75.073 102.554 73.9431 101.971 73.064 101.093C73.5577 101.581 74.1841 101.911 74.8649 102.044C75.5457 102.177 76.2504 102.106 76.8909 101.839C77.5314 101.573 78.0791 101.124 78.4654 100.548C78.8517 99.972 79.0594 99.2948 79.0625 98.6012V11.3987C79.0631 10.7019 78.8568 10.0206 78.4698 9.44108C78.0829 8.86157 77.5326 8.40996 76.8888 8.14344C76.245 7.87693 75.5365 7.8075 74.8532 7.94395C74.1698 8.08041 73.5424 8.41661 73.0503 8.90996C73.9287 8.03113 75.0584 7.44694 76.2833 7.23818C77.5081 7.02942 78.7676 7.2064 79.8875 7.74465L99.7047 17.2734C100.727 17.7615 101.591 18.5288 102.196 19.4868C102.801 20.4448 103.123 21.5543 103.125 22.6875V87.3125C103.125 88.4447 102.806 89.554 102.203 90.5124C101.6 91.4709 100.739 92.2396 99.7184 92.73L79.9012 102.255Z" fill="#1F9CF0"/>
</svg>
